<?xml version="1.0" encoding="UTF-8"?>
  <svg id="Lager_1" xmlns="http://www.w3.org/2000/svg" viewBox="0 0 851 315">
    <g id="_grupp_hello_">
      <path id="_h_" d="m69.09,64.48c.42.11.73.35.94.75.21.39.26.8.16,1.22-.68,2.1-1.33,3.99-1.93,5.67-.6,1.68-1.33,3.6-2.17,5.75-.84,2.15-1.76,4.33-2.76,6.54-1.21,2.68-2.4,5.05-3.58,7.13-1.18,2.07-2.35,3.87-3.5,5.39-.53.73-1.12,1.47-1.77,2.2-.66.73-1.38,1.39-2.17,1.97-.79.58-1.63,1.06-2.52,1.46-.89.39-1.84.59-2.83.59-1.21,0-2.18-.22-2.91-.67-.74-.45-1.29-.91-1.65-1.38-.79-1-1.27-2.26-1.46-3.78-.18-1.52-.17-3.26.04-5.2.21-1.94.56-4.02,1.06-6.22.5-2.2,1.04-4.46,1.61-6.77.47-1.94.91-3.82,1.3-5.63.39-1.81.7-3.48.91-5,.26-1.99.33-3.4.2-4.21-.13-.81-.3-1.33-.51-1.54-.16-.26-.47-.39-.95-.39-1.21,0-2.53.72-3.98,2.17-1.45,1.44-2.9,3.53-4.37,6.26-1.26,2.47-2.48,5.3-3.66,8.5-1.18,3.2-2.3,6.61-3.35,10.24-.16.53-.79.95-1.89,1.26-1.1.31-2.31.47-3.62.47s-2.51-.14-3.58-.43c-1.08-.29-1.69-.75-1.85-1.38-.42-1.84-.83-4.06-1.22-6.65-.39-2.6-.75-5.43-1.06-8.5s-.6-6.27-.87-9.61c-.26-3.33-.42-6.63-.47-9.88-.1-3.83-.09-7.38.04-10.63.13-3.25.38-6.22.75-8.9.89-6.51,2.44-11.16,4.65-13.94,1.73-2.15,3.78-3.23,6.14-3.23,1.99-.1,3.75.79,5.28,2.68.89,1.05,1.61,2.34,2.17,3.86.55,1.52.96,3.2,1.22,5.04.26,1.94.33,3.96.2,6.06-.13,2.1-.41,4.23-.83,6.38-.79,3.52-2.13,6.88-4.02,10.08-1.31,2.21-2.78,4.28-4.41,6.22.16,4.31.45,8.54.87,12.72.42,4.17.89,7.91,1.42,11.22.84-2.52,1.7-4.87,2.6-7.05.89-2.18,1.81-4.16,2.76-5.95,1.63-3.04,3.28-5.41,4.96-7.09.89-.95,2.03-1.73,3.43-2.36,1.39-.63,2.83-1.04,4.33-1.22,1.5-.18,2.98-.12,4.45.2,1.47.31,2.76.95,3.86,1.89.73.68,1.4,1.65,2.01,2.91.6,1.26.77,2.99.51,5.2-.21,1.68-.53,3.45-.95,5.32-.42,1.86-.92,3.82-1.5,5.87-.47,2-.95,3.98-1.42,5.95-.47,1.97-.84,3.82-1.1,5.55-.11.89-.21,1.73-.31,2.52-.11.79-.13,1.39-.08,1.81.05.42.22.6.51.55.29-.05.8-.53,1.54-1.42,1.1-1.42,2.21-3.12,3.31-5.12s2.26-4.25,3.46-6.77c1-2.15,1.9-4.28,2.72-6.38.81-2.1,1.51-3.98,2.09-5.63.58-1.65,1.18-3.53,1.81-5.63.16-.42.42-.72.79-.91.37-.18.76-.22,1.18-.12Zm-37.96-22.99c.58-2.52.91-4.84.98-6.97s0-3.88-.24-5.28c-.24-1.39-.59-2.39-1.06-2.99-.47-.6-.98-.63-1.54-.08-.55.55-1.1,1.71-1.65,3.46-.55,1.76-1.01,4.29-1.38,7.6-.26,2.31-.45,4.82-.55,7.52-.11,2.7-.11,5.63,0,8.78,1.1-1.63,2.15-3.45,3.15-5.47,1-2.02,1.76-4.21,2.28-6.58Z"/>
      <path id="_e_" d="m96.96,64.87c.42.21.68.51.79.91.1.39.05.8-.16,1.22-1.52,2.99-3.11,5.93-4.76,8.82-1.65,2.89-3.32,5.46-5,7.72-.74.89-1.5,1.79-2.28,2.68-.79.89-1.65,1.69-2.6,2.4-.94.71-1.96,1.3-3.03,1.77-1.08.47-2.24.71-3.5.71-1.84,0-3.49-.75-4.96-2.24-1.47-1.5-2.7-3.66-3.7-6.5-1.21-3.52-1.86-7.27-1.97-11.26-.1-3.99.55-7.82,1.97-11.5.52-1.21,1.1-2.27,1.73-3.19.63-.92,1.37-1.69,2.21-2.32,1.57-1.26,3.31-2.05,5.2-2.36,1.89-.26,3.52-.05,4.88.63,1.05.53,1.88,1.25,2.48,2.17.6.92.91,1.98.91,3.19,0,3.05-2.86,5.83-8.58,8.35.05,1.26.13,2.77.24,4.53.1,1.76.25,3.5.43,5.24.18,1.73.46,3.33.83,4.8.37,1.47.87,2.56,1.5,3.27.63.71,1.4.95,2.32.71.92-.24,2.06-1.22,3.43-2.95,1.63-2.21,3.24-4.71,4.84-7.52,1.6-2.81,3.16-5.66,4.69-8.54.21-.42.51-.7.91-.83.39-.13.8-.09,1.22.12Zm-19.69-2.6c1.05-.52,1.89-1.04,2.52-1.54.63-.5,1.1-.95,1.42-1.34.31-.39.52-.73.63-1.02.1-.29.16-.51.16-.67,0-.63-.04-.98-.12-1.06-.08-.08-.33-.04-.75.12-1.73.74-3.02,2.57-3.86,5.51Z"/>
      <path id="_l1_" d="m135.78,64.4c.42.11.76.34,1.02.71.26.37.34.76.24,1.18,0,.05-.19.8-.55,2.24-.37,1.44-.87,3.33-1.5,5.67-.63,2.34-1.41,4.99-2.32,7.95-.92,2.97-1.93,6-3.03,9.1-2.68,7.3-5.41,13.07-8.19,17.32-.58.89-1.25,1.84-2.01,2.83-.76,1-1.6,1.92-2.52,2.76-.92.84-1.93,1.52-3.03,2.05-1.1.52-2.28.79-3.54.79-2.99,0-5.64-1.44-7.95-4.33-1.94-2.52-3.6-6.04-4.96-10.55-1.16-3.99-2.04-8.66-2.64-14.02-.6-5.36-.91-11.1-.91-17.25s.33-12.66.98-18.78c.66-6.12,1.59-11.62,2.8-16.5,1.26-5.14,2.78-9.19,4.57-12.13,2.05-3.52,4.44-5.28,7.17-5.28,1.42,0,2.69.28,3.82.83,1.13.55,2.1,1.3,2.91,2.24.81.94,1.48,2.03,2.01,3.27.52,1.23.92,2.51,1.18,3.82.58,3.26.52,6.79-.16,10.59-.68,3.81-1.94,7.52-3.78,11.14-1,2-2.13,3.83-3.39,5.51-1.26,1.68-2.65,3.26-4.17,4.72-.42.42-.87.83-1.34,1.22-.47.39-.95.8-1.42,1.22-.31,6.98-.24,13.73.24,20.24.21,2.57.5,5.24.87,7.99.37,2.76.83,5.37,1.38,7.84.55,2.47,1.19,4.67,1.93,6.62.73,1.94,1.56,3.37,2.48,4.29.92.92,1.95,1.21,3.11.87,1.15-.34,2.41-1.59,3.78-3.74,2.57-3.99,5.17-9.56,7.8-16.69,1.1-3.04,2.1-6.02,2.99-8.94.89-2.91,1.65-5.52,2.28-7.84.63-2.31,1.29-4.88,1.97-7.72.1-.42.34-.76.71-1.02.37-.26.76-.34,1.18-.24Zm-19.61-35.52c-.31-2.2-.74-3.53-1.26-3.98-.53-.45-1.1-.32-1.73.39-.63.71-1.27,1.88-1.93,3.5-.66,1.63-1.27,3.44-1.85,5.43-.58,2-1.1,4.03-1.57,6.1-.47,2.07-.84,3.93-1.1,5.55-.32,2-.59,4.03-.83,6.1-.24,2.07-.43,4.19-.59,6.34,2.89-2.68,5.3-5.91,7.24-9.69,1.68-3.25,2.83-6.64,3.46-10.16.63-3.52.68-6.72.16-9.61Z"/>
      <path id="_l2_" d="m175.39,64.4c.42.11.76.34,1.02.71.26.37.34.76.24,1.18,0,.05-.19.8-.55,2.24-.37,1.44-.87,3.33-1.5,5.67-.63,2.34-1.41,4.99-2.32,7.95-.92,2.97-1.93,6-3.03,9.1-2.68,7.3-5.41,13.07-8.19,17.32-.58.89-1.25,1.84-2.01,2.83-.76,1-1.6,1.92-2.52,2.76-.92.84-1.93,1.52-3.03,2.05-1.1.52-2.28.79-3.54.79-2.99,0-5.64-1.44-7.95-4.33-1.94-2.52-3.6-6.04-4.96-10.55-1.16-3.99-2.04-8.66-2.64-14.02-.6-5.36-.91-11.1-.91-17.25s.33-12.66.98-18.78c.66-6.12,1.59-11.62,2.8-16.5,1.26-5.14,2.78-9.19,4.57-12.13,2.05-3.52,4.44-5.28,7.17-5.28,1.42,0,2.69.28,3.82.83,1.13.55,2.1,1.3,2.91,2.24.81.94,1.48,2.03,2.01,3.27.52,1.23.92,2.51,1.18,3.82.58,3.26.52,6.79-.16,10.59-.68,3.81-1.94,7.52-3.78,11.14-1,2-2.13,3.83-3.39,5.51-1.26,1.68-2.65,3.26-4.17,4.72-.42.42-.87.83-1.34,1.22-.47.39-.95.8-1.42,1.22-.31,6.98-.24,13.73.24,20.24.21,2.57.5,5.24.87,7.99.37,2.76.83,5.37,1.38,7.84.55,2.47,1.19,4.67,1.93,6.62.73,1.94,1.56,3.37,2.48,4.29.92.92,1.95,1.21,3.11.87,1.15-.34,2.41-1.59,3.78-3.74,2.57-3.99,5.17-9.56,7.8-16.69,1.1-3.04,2.1-6.02,2.99-8.94.89-2.91,1.65-5.52,2.28-7.84.63-2.31,1.29-4.88,1.97-7.72.1-.42.34-.76.71-1.02.37-.26.76-.34,1.18-.24Zm-19.61-35.52c-.31-2.2-.74-3.53-1.26-3.98-.53-.45-1.1-.32-1.73.39-.63.71-1.27,1.88-1.93,3.5-.66,1.63-1.27,3.44-1.85,5.43-.58,2-1.1,4.03-1.57,6.1-.47,2.07-.84,3.93-1.1,5.55-.32,2-.59,4.03-.83,6.1-.24,2.07-.43,4.19-.59,6.34,2.89-2.68,5.3-5.91,7.24-9.69,1.68-3.25,2.83-6.64,3.46-10.16.63-3.52.68-6.72.16-9.61Z"/>
      <path id="_o_" d="m204.29,66.84c.32.31.46.7.43,1.14-.03.45-.2.8-.51,1.06-1.47,1.31-3.02,1.97-4.65,1.97-.47,0-.93-.05-1.38-.16-.45-.1-.93-.24-1.46-.39-.47-.21-.96-.43-1.46-.67-.5-.24-.98-.51-1.46-.83.31,1.26.47,2.63.47,4.1,0,3.46-.89,6.46-2.68,8.98-1.05,1.37-2.3,2.43-3.74,3.19-1.44.76-3.01,1.14-4.69,1.14-2,0-3.79-.34-5.39-1.02-1.6-.68-3.01-1.65-4.21-2.91-1.05-1.1-1.84-2.39-2.36-3.86-.52-1.47-.79-3.04-.79-4.72s.29-3.31.87-4.88c.58-1.57,1.39-2.97,2.44-4.17,2.47-2.78,5.77-4.17,9.92-4.17,1.73,0,3.28.33,4.65.98,1.36.66,2.78,1.51,4.25,2.56,1,.79,1.93,1.48,2.8,2.09.87.6,1.69,1.04,2.48,1.3.79.26,1.54.34,2.24.24.71-.1,1.38-.45,2.01-1.02.31-.31.7-.46,1.14-.43.45.03.8.2,1.06.51Zm-22.6,7.87c.21,2.31.83,3.94,1.85,4.88,1.02.94,2.1,1.31,3.23,1.1,1.13-.21,2.14-.97,3.03-2.28.89-1.31,1.34-3.1,1.34-5.35,0-1.26-.16-2.45-.47-3.58-.31-1.13-.79-2.11-1.42-2.95-.63-.79-1.34-1.42-2.13-1.89-1.05.47-1.94,1.09-2.68,1.85-.74.76-1.33,1.59-1.77,2.48-.45.89-.75,1.84-.91,2.83-.16,1-.18,1.97-.08,2.91Z"/>
    </g>
    <g id="grupp_world">
      <path id="_W_" d="m149.25,158.07c5.14,0,7.35,3.12,5.88,8.08l-29.22,94.26c-1.84,6.25-7.72,5.88-9.55,0l-29.4-94.26c-1.47-4.96.73-8.08,5.88-8.08h56.41Zm-17.27,128.62c-5.14,0-7.35-3.12-5.88-8.08l35.83-114.66c1.29-4.04,3.86-5.88,8.08-5.88h46.86c5.14,0,7.35,3.12,5.88,8.08l-35.83,114.66c-1.29,4.04-3.86,5.88-8.09,5.88h-46.86Zm67.62,0c-5.14,0-7.35-3.12-5.88-8.08l35.83-114.66c1.29-4.04,3.86-5.88,8.08-5.88h46.86c5.14,0,7.35,3.12,5.88,8.08l-35.83,114.66c-1.29,4.04-3.86,5.88-8.09,5.88h-46.86Z"/>
      <g id="globe">
        <path class="cls-2" d="m441.6,222.63c0,41.5-33.81,74.54-74.54,74.54s-74.54-33.04-74.54-74.54,33.04-74.54,74.54-74.54,74.54,33.04,74.54,74.54"/>
        <path class="cls-1" d="m366.34,256.83c0-1.49-.75-2.24-2.24-2.98-4.47-1.49-8.94-1.49-12.67-5.22-.75-1.49-.75-2.98-1.49-4.47-1.49-1.49-5.22-2.24-7.45-2.98h-14.91c-2.24-.75-3.73-3.73-5.22-5.96,0-.75,0-2.24-1.49-2.24-1.49-.74-2.98.75-4.47,0-.75-.74-.75-1.49-.75-2.23,0-2.24,1.49-4.48,2.98-5.97,2.24-1.49,4.47.75,6.71.75q.75,0,1.49.75c2.24.75,2.98,3.73,2.98,5.97v1.49c0,.75.75.75,1.49.75.75-3.73.75-7.46,1.49-11.18,0-4.47,4.47-8.95,8.2-10.44,1.49-.74,2.24.75,3.73,0,4.47-1.49,15.65-5.96,13.42-11.92-1.49-5.22-5.96-10.43-11.93-9.69-1.49.75-2.24,1.49-3.73,2.24-2.24,1.49-6.71,5.96-8.94,5.96-3.73-.75-3.73-5.96-2.98-8.2.75-2.98,7.45-12.67,11.93-11.18l2.98,2.98c1.49.75,3.73.75,5.96.75.75,0,1.49,0,2.24-.75s.75-.75.75-1.49c0-2.24-2.24-4.48-3.73-5.97s-3.73-2.98-5.96-3.72c-7.45-2.24-19.38.74-25.34,5.96-5.96,5.22-10.44,14.16-13.42,21.62-1.49,4.47-2.98,10.43-3.73,15.65-.75,3.73-1.49,6.71.75,10.43,2.24,4.47,6.71,8.95,11.18,11.93,2.98,2.24,8.94,2.24,11.93,5.96,2.24,2.98,1.49,6.71,1.49,10.44,0,4.47,2.98,8.2,4.47,11.92.75,2.24,1.49,5.22,2.24,7.46,0,.75.75,5.22.75,5.96,4.47,2.24,8.2,4.48,13.42,5.97.75,0,3.73-4.48,3.73-5.22,2.24-2.24,3.73-5.22,5.96-6.71,1.49-.75,2.98-1.49,4.47-2.98,1.49-1.49,2.24-4.47,2.98-6.71.75-1.49,1.49-4.47.75-6.7m1.48-68.47c.75,0,1.49-.75,2.98-1.49,2.24-1.49,4.48-3.73,6.71-5.22,2.24-1.49,4.48-3.73,5.97-5.22,2.24-1.49,3.73-4.47,4.47-6.71.75-1.49,2.98-4.47,2.24-6.71-.75-1.49-4.47-2.24-5.96-2.98-5.97-1.49-11.18-2.23-17.15-2.23-2.24,0-5.22.74-5.96,2.98-.75,3.73,2.24,2.98,5.22,3.73,0,0,.75,5.96.75,6.71.75,3.73-1.49,5.96-1.49,9.69,0,2.24,0,5.96,1.49,7.45h.75Zm62.61,52.16c.75-1.49.75-3.73,1.49-5.22.75-3.73.75-7.45.75-11.18,0-7.45-.75-14.9-2.98-21.62-1.49-2.24-2.24-4.47-2.98-6.71-1.49-3.72-3.73-7.45-6.71-10.43-2.98-3.73-6.71-14.16-13.42-11.18-2.24.75-3.73,3.73-5.22,5.22l-4.47,6.71c-.75.75-1.49,2.24-.75,2.98,0,.75.75.75,1.49.75,1.49.75,2.24.75,3.73,1.49.75,0,1.49.75.75,1.49,0,0,0,.75-.75.75-3.73,3.73-7.45,6.71-11.18,10.43-.75.75-1.49,2.24-1.49,2.98s.75.75.75,1.49-.75.75-1.49,1.49c-1.49.75-2.98,1.49-3.73,2.24-.75,1.49,0,3.73-.75,5.22-.75,3.73-2.98,6.71-4.48,10.44-1.49,2.23-2.23,4.47-3.72,6.71,0,2.98-.75,5.22.74,7.45,3.73,5.22,10.44,2.24,15.65,4.48,1.49.74,2.98.74,3.73,2.23,2.23,2.24,2.23,5.97,2.98,8.2.74,2.98,1.49,5.96,2.98,8.94.75,3.73,2.24,7.46,2.98,10.44,6.71-5.22,12.67-11.18,17.14-18.63,4.47-5.23,6.71-11.19,8.94-17.15"/>
      </g>
      <path id="_R_" d="m511.36,158.07c4.59,0,7.17,2.57,7.17,7.17v114.29c0,4.59-2.57,7.17-7.17,7.17h-46.3c-4.59,0-7.17-2.57-7.17-7.17v-114.29c0-4.59,2.57-7.17,7.17-7.17h46.3Zm19.84,64.31c-4.59,0-7.17-2.57-7.17-7.16v-49.98c0-4.59,2.57-7.17,7.17-7.17h11.58c24.99,0,37.12,9.55,37.12,31.79,0,24.44-7.72,32.52-34.18,32.52h-14.52Zm15.25,5.51c31.61,0,34.54,3.68,34.54,43.73v8.08c0,4.59-2.57,7.17-7.16,7.17h-42.63c-4.59,0-7.17-2.57-7.17-7.17v-44.65c0-4.59,2.57-7.17,7.17-7.17h15.25Z"/>
      <path id="_L_" d="m594.6,241.49c-4.59,0-7.17-2.57-7.17-7.17v-69.09c0-4.59,2.57-7.17,7.17-7.17h46.3c4.59,0,7.17,2.57,7.17,7.17v69.09c0,4.59-2.57,7.17-7.17,7.17h-46.3Zm0,45.2c-4.59,0-7.17-2.57-7.17-7.17v-25.36c0-4.59,2.57-7.16,7.17-7.16h90.95c4.59,0,7.16,2.57,7.16,7.16v25.36c0,4.59-2.57,7.17-7.16,7.17h-90.95Z"/>
      <path id="_D_" d="m699.14,165.24c0-4.59,2.57-7.17,7.16-7.17h46.3c4.59,0,7.16,2.57,7.16,7.17v114.29c0,4.59-2.57,7.17-7.16,7.17h-46.3c-4.59,0-7.16-2.57-7.16-7.17v-114.29Zm72.95-7.17c35.83,0,57.88,23.34,57.88,63.76s-22.97,64.86-57.88,64.86h-.55c-4.22,0-6.25-2.57-6.25-7.17v-114.29c0-4.78,2.02-7.17,6.25-7.17h.55Z"/>
    </g>
</svg>